<svg width="320" height="60" viewBox="0 0 320 60" fill="none" xmlns="http://www.w3.org/2000/svg">
<path d="M38.3059 26.8056V39.1667H40.9038H43.5018V35.1667V31.1667L47.1389 31.0556C51.1588 30.9167 52.3894 30.5556 54.2763 28.8889C55.8624 27.4445 56.4367 26.0834 56.5734 23.25C56.7375 20.25 56.2453 18.7778 54.4951 16.8889C52.4714 14.6945 51.4596 14.4445 44.3222 14.4445H38.3059V26.8056ZM49.0531 19C51.8972 20.2222 52.28 24.3056 49.7094 26.2222C49.1078 26.6667 48.4241 26.8056 46.2364 26.8889L43.5018 27V22.8056V18.6111H45.8262C47.1935 18.6111 48.5335 18.7778 49.0531 19Z" fill="#000000"/>
<path d="M156.443 19.0833V23.75L155.349 22.4445C152.177 18.6945 146.571 20 144.301 24.9722C143.809 26.0556 143.727 26.7778 143.727 29.8611C143.727 33.1667 143.782 33.6111 144.438 35.0278C145.778 37.9167 148.075 39.4445 151.083 39.4445C152.833 39.4445 154.666 38.5556 155.431 37.3333C155.759 36.8056 156.115 36.3889 156.252 36.3889C156.361 36.3889 156.443 37 156.443 37.7778V39.1667H158.904H161.365V26.8056V14.4445H158.904H156.443V19.0833ZM154.419 24.9722C156.853 26.5 157.099 32.5833 154.775 34.5556C153.544 35.6111 151.603 35.5833 150.345 34.4445C147.884 32.25 148.376 25.8333 151.111 24.6945C152.068 24.3056 153.544 24.4167 154.419 24.9722Z" fill="#000000"/>
<path d="M173.398 26.8333V39.2222L180.18 39.1111C186.552 39.0278 187.017 39 188.302 38.3889C190.982 37.1389 192.24 35.2222 192.267 32.4167C192.267 29.25 190.626 27.0278 187.755 26.3889L186.934 26.1945L188.028 25.7222C191.802 24.0833 192.595 19.5 189.642 16.4722C187.864 14.6667 186.743 14.4445 179.496 14.4445H173.398V26.8333ZM184.911 19.25C186.114 20.0556 186.47 21.3889 185.895 22.8056C185.321 24.25 184.145 24.7222 181.082 24.7222H178.594V21.6667V18.6111H181.301C183.653 18.6111 184.09 18.6945 184.911 19.25ZM185.02 28.7222C187.153 29.6389 187.673 32.4167 186.005 33.9445C185.075 34.7778 183.379 35.0833 180.508 34.9445L178.731 34.8611L178.648 31.5833L178.566 28.3333H181.328C183.106 28.3333 184.419 28.4722 185.02 28.7222Z" fill="#000000"/>
<path d="M195.549 26.8056V39.1667H198.147H200.745V33.3056C200.745 28.4445 200.827 27.2778 201.182 26.5C202.331 24.0834 206.022 24.0278 207.226 26.4167C207.472 26.8889 207.581 28.8889 207.581 33.1111V39.1667H210.042H212.504V32.1389V25.1111L211.765 23.5834C211.328 22.7222 210.617 21.8334 210.07 21.4445C207.28 19.5834 203.26 20.0834 201.592 22.5278C201.209 23.1111 200.799 23.5834 200.69 23.6111C200.553 23.6111 200.471 21.5556 200.471 19.0278V14.4445H198.01H195.549V26.8056Z" fill="#000000"/>
<path d="M248.273 19.0833L248.191 23.75L247.562 22.7222C246.55 21.0833 245.237 20.4167 242.995 20.4167C240.725 20.4167 239.44 20.9722 237.881 22.5833C236.24 24.3056 235.639 26.25 235.639 29.8611C235.639 33.3333 236.158 35.1667 237.717 37.0556C240.178 40.1111 245.101 40.25 247.453 37.3333L248.328 36.25V37.7222V39.1667H250.926H253.523V26.8056V14.4445H250.926H248.328L248.273 19.0833ZM246.824 25.3056C247.999 26.3611 248.41 27.8056 248.273 30.4167C248.081 33.8056 246.906 35.2778 244.362 35.2778C243.241 35.2778 242.94 35.1389 242.175 34.3056C240.561 32.5833 240.233 28.9167 241.464 26.4445C242.557 24.2778 245.073 23.75 246.824 25.3056Z" fill="#000000"/>
<path d="M67.6761 20.6667C66.801 21.0556 65.379 22.6945 65.379 23.2778C65.379 23.4722 65.2696 23.6111 65.1055 23.6111C64.9688 23.6111 64.832 22.9167 64.832 22.0834V20.5556H62.5076H60.1831V29.8611V39.1667H62.6443H65.1055V33.3611C65.1055 27.8056 65.1328 27.5556 65.7345 26.6389C66.6369 25.25 67.9495 24.6667 69.6997 24.8334L71.1217 24.9722V22.6111V20.2778H69.8364C69.0981 20.3056 68.141 20.4722 67.6761 20.6667Z" fill="#000000"/>
<path d="M78.1498 20.6667C76.1809 21.2222 74.6768 22.4167 73.7744 24.1667L72.9813 25.6945L74.1846 25.8889C76.8372 26.3056 77.5482 26.1945 78.5874 25.1389C79.4351 24.2778 79.7086 24.1667 80.9118 24.1667C82.662 24.1667 83.7012 24.9167 83.7012 26.25C83.7012 26.75 83.5371 27.3056 83.3183 27.4722C83.1269 27.6389 81.5955 27.9722 79.9 28.1945C75.9347 28.7222 74.294 29.4167 73.2821 31.0833C71.7781 33.4722 72.4344 37 74.6768 38.5C75.5519 39.1111 76.2082 39.2778 77.8217 39.3889C80.3375 39.5556 81.9236 39.0278 83.1542 37.6111L83.9746 36.6389V37.9167V39.1667H86.4358H88.897V32.2778C88.897 25.5833 88.8697 25.3889 88.2134 23.9722C86.846 20.9445 82.4159 19.5 78.1498 20.6667ZM83.7012 32.3889C83.7012 33.7222 83.5918 34.0556 82.9355 34.7222C81.9236 35.75 80.3102 36.1945 78.9976 35.8334C77.7123 35.4722 77.3568 34.9722 77.4662 33.7222C77.5755 32.3611 78.3959 31.7778 80.8298 31.2778C83.8653 30.6667 83.7012 30.6111 83.7012 32.3889Z" fill="#000000"/>
<path d="M100.793 20.7778C99.699 21.3056 98.5231 22.4167 97.9761 23.4722C97.73 23.9167 97.6753 23.7222 97.648 22.2778V20.5556H95.1868H92.7256V29.8611V39.1667H95.2962H97.8941L97.9761 32.7778L98.0582 26.3889L98.9333 25.5C99.6716 24.7778 100.054 24.5834 100.957 24.5834C101.887 24.5834 102.215 24.75 102.871 25.5L103.664 26.3889V32.7778V39.1667H106.125H108.587V33.1945C108.587 26.2778 108.751 25.5278 110.391 24.8334C111.595 24.3334 112.661 24.5278 113.618 25.4167L114.329 26.0834V32.6389V39.1667H116.927H119.525V32.2778C119.525 28.3611 119.388 24.9722 119.224 24.3611C118.869 23 117.502 21.4445 116.107 20.8056C113.509 19.5834 109.981 20.6389 108.641 23.0278L108.094 23.9722L107.52 22.8611C106.782 21.3611 105.414 20.5278 103.445 20.3889C102.27 20.2778 101.613 20.3889 100.793 20.7778Z" fill="#000000"/>
<path d="M129.042 20.6389C126.526 21.3611 124.803 22.9722 123.572 25.7222C123.053 26.8611 122.943 27.5556 122.943 30C122.943 32.6389 123.026 33.0556 123.737 34.5556C125.35 37.8889 127.893 39.4445 131.831 39.4445C135.769 39.4445 138.476 37.8056 139.98 34.5C140.637 33.1111 140.719 32.5556 140.719 30C140.719 27.3611 140.637 26.9167 139.926 25.3333C139.023 23.3889 137.574 21.8889 135.714 21.0556C134.156 20.3611 130.792 20.1389 129.042 20.6389ZM134.21 25.3889C134.675 25.9167 135.222 26.8889 135.386 27.5278C135.824 29.1389 135.605 32.1111 134.976 33.4445C133.636 36.25 130.026 36.25 128.659 33.4445C127.893 31.8611 127.921 27.75 128.714 26.3889C130.108 23.9722 132.542 23.5278 134.21 25.3889Z" fill="#000000"/>
<path d="M221.254 20.75C220.188 21.0833 219.368 21.6111 218.356 22.6111C217.098 23.8611 216.305 25.3333 216.66 25.6945C216.742 25.7778 217.699 25.9167 218.821 26L220.844 26.1945L221.856 25.1667C222.759 24.25 222.977 24.1667 224.317 24.1667C225.521 24.1667 225.931 24.2778 226.368 24.7778C227.216 25.7222 227.353 26.5 226.806 27.1945C226.396 27.6667 225.767 27.8611 223.223 28.1945C221.528 28.4167 219.614 28.8333 218.985 29.1111C217.371 29.8333 216.141 31.3611 215.922 32.9167C215.32 36.8889 217.645 39.4445 221.883 39.4445C224.126 39.4445 225.384 38.9445 226.614 37.5833L227.544 36.5556V37.8611V39.1667H229.869H232.193V32.1389C232.193 24.5278 232.056 23.7222 230.525 22.3056C228.638 20.5556 224.263 19.8056 221.254 20.75ZM227.025 33.3611C226.423 35.3611 224.235 36.4445 222.157 35.75C221.008 35.3889 220.516 34.4445 220.817 33.25C221.063 32.1945 221.883 31.75 224.673 31.1945L227.134 30.6945L227.216 31.5278C227.271 31.9722 227.189 32.8056 227.025 33.3611Z" fill="#000000"/>
<path d="M262.548 20.6389C260.989 21.0834 259.458 22.0278 258.692 23C258.118 23.75 257.27 25.5556 257.434 25.7222C257.461 25.7778 258.501 25.8889 259.704 26L261.864 26.1945L262.876 25.1667C263.751 24.2778 264.025 24.1667 265.228 24.1667C266.978 24.1667 268.017 24.9167 268.017 26.25C268.017 26.75 267.853 27.3056 267.634 27.4722C267.443 27.6389 265.884 27.9722 264.161 28.1945C258.774 28.9167 256.805 30.4445 256.805 33.8889C256.832 37.3056 258.61 39.1667 262.138 39.3889C264.654 39.5556 266.24 39.0278 267.47 37.6111L268.291 36.6389V37.9167V39.1667H270.752H273.213V32.2778C273.213 25.6389 273.186 25.3611 272.557 24C271.49 21.6667 269.521 20.5834 265.994 20.3889C264.626 20.3334 263.286 20.4167 262.548 20.6389ZM268.017 32.3889C268.017 33.7222 267.908 34.0556 267.251 34.7222C266.24 35.75 264.626 36.1945 263.314 35.8334C262.11 35.4722 261.7 35 261.673 33.9167C261.618 32.3889 262.466 31.8334 265.829 31.1389C268.072 30.6945 268.017 30.6667 268.017 32.3889Z" fill="#000000"/>
<path d="M285.437 20.6667C284.179 21.1389 283.741 21.5 282.73 22.8889L281.964 23.9722V22.2778V20.5556H279.503H277.042V29.8611V39.1667H279.639H282.237V33.3334C282.237 26.75 282.401 25.9167 283.905 25.1111C285.902 24.0834 288.062 24.8056 288.718 26.6945C288.937 27.3056 289.047 29.6945 289.047 33.3889L289.074 39.1667H291.535H293.996V32.4167C293.996 24.5556 293.832 23.75 291.945 21.9722C290.195 20.3334 287.734 19.8334 285.437 20.6667Z" fill="#000000"/>
<path d="M302.939 20.6667C300.915 21.25 299.438 22.4167 298.563 24.1667L297.797 25.6945L298.973 25.8889C301.626 26.3056 302.364 26.1667 303.376 25.1389C304.224 24.2778 304.497 24.1667 305.701 24.1667C307.451 24.1667 308.49 24.9167 308.49 26.25C308.49 26.75 308.326 27.3056 308.107 27.4722C307.916 27.6389 306.357 27.9722 304.634 28.1945C299.247 28.9167 297.278 30.4445 297.278 33.8889C297.305 37.3056 299.083 39.1667 302.61 39.3889C305.126 39.5556 306.712 39.0278 307.943 37.6111L308.763 36.6389V37.9167V39.1667H311.225H313.686V32.2778C313.686 25.6389 313.658 25.3611 313.029 24C311.963 21.6667 309.994 20.5834 306.466 20.3889C305.072 20.3334 303.759 20.4167 302.939 20.6667ZM308.49 32.3889C308.49 33.7222 308.381 34.0556 307.724 34.7222C306.712 35.75 305.099 36.1945 303.786 35.8334C302.501 35.4722 302.146 34.9722 302.255 33.7222C302.364 32.3611 303.185 31.7778 305.619 31.2778C308.654 30.6667 308.49 30.6111 308.49 32.3889Z" fill="#000000"/>
<path d="M12.1667 11.0188C12.1563 11.0292 12.1458 11.7531 12.1458 12.6229V14.201H13.1094H14.0729V13.5604V12.925H17.9948L21.9115 12.9302L22.3802 13.0604C23.2813 13.3156 23.9323 13.6906 24.5833 14.326C26.1823 15.8833 26.5521 18.149 25.526 20.1385C25.1094 20.9458 24.3177 21.7583 23.5469 22.1698L23.25 22.326L23.2344 22.7063C23.224 22.9094 23.224 23.2323 23.2344 23.4198L23.25 23.7583L23.6615 23.9563C23.9583 24.1021 24.1927 24.2688 24.5208 24.576C25.2448 25.2635 25.6563 25.9302 25.9323 26.8625C26.0625 27.3104 26.0729 27.425 26.0729 28.1854C26.0729 28.9406 26.0573 29.0604 25.9323 29.4771C25.3281 31.4302 23.6563 32.8938 21.7656 33.1073C21.5313 33.1385 19.7135 33.1594 17.7344 33.1594H14.125V32.2479V31.3365H13.1615H12.1979V31.7375C12.1927 31.9615 12.1823 32.8 12.1667 33.6021L12.1406 35.0604L17 35.05C21.1354 35.0396 21.9323 35.024 22.3542 34.9563C24.4167 34.6125 26.3177 33.1854 27.2708 31.2583C27.5938 30.6177 27.7135 30.2688 27.875 29.5292C28.0417 28.7948 28.0417 27.6177 27.8802 26.8573C27.5938 25.5135 27.0625 24.4771 26.1615 23.5135C25.9271 23.2688 25.7396 23.05 25.7396 23.0292C25.7396 23.0083 25.9167 22.8052 26.1354 22.5708C27.2031 21.4354 27.8177 20.0656 27.9792 18.451C28.0729 17.5083 27.9271 16.4042 27.5833 15.451C26.7396 13.1021 24.5469 11.3677 22.0156 11.0448C21.6979 11.0031 12.2083 10.9823 12.1667 11.0188Z" fill="#000000"/>
<path d="M6 27.7167V39.4615L7.52604 39.4511L9.04687 39.4354L9.05729 35.0344C9.0625 32.6125 9.06771 30.3938 9.07292 30.0969V29.5657H11.6927C14.9115 29.5657 15.651 29.4979 16.9167 29.0709C18.5677 28.5188 19.8177 27.4927 20.5312 26.0969C20.9792 25.2219 21.1979 24.2792 21.2448 22.9927C21.3229 20.8886 20.7396 19.2375 19.4687 17.9719C18.4792 16.9823 17.375 16.4459 15.6615 16.1177C15.1094 16.0136 14.9115 16.0084 10.5469 15.9875L6 15.9667V27.7167ZM15.0104 18.6229C15.6406 18.7636 16.4375 19.149 16.8646 19.524C17.7083 20.2584 18.1406 21.175 18.2187 22.3677C18.3646 24.7219 17.2135 26.3782 15.0677 26.925C14.6354 27.0344 14.526 27.0396 11.849 27.0396H9.07292L9.06771 22.7948C9.06771 20.4615 9.06771 18.5344 9.06771 18.5136C9.07292 18.4927 10.2969 18.4823 11.7969 18.4927C14.349 18.5084 14.5469 18.5188 15.0104 18.6229Z" fill="#000000"/>
<path d="M13.0469 20.6334C12.6406 20.7427 12.3698 20.899 12.0521 21.2011C10.9427 22.248 11.2448 24.0761 12.6354 24.7271C13.375 25.0761 14.3125 24.9563 14.9167 24.4355C15.4583 23.9771 15.7031 23.4407 15.7031 22.7167C15.7083 22.3 15.6875 22.2063 15.5417 21.8938C15.2344 21.2219 14.6302 20.7375 13.9479 20.6125C13.5521 20.5396 13.3854 20.5448 13.0469 20.6334Z" fill="#000000"/>
</svg>
